<svg width="339" height="235" viewBox="0 0 339 235" fill="none" xmlns="http://www.w3.org/2000/svg">
<path d="M114.5 4C104.5 45 57.1667 46.8333 30 39C54.5 67.5 32.5 100.667 2 108C48.5 111.5 57.8333 147.833 40.5 167C76.5 154 112 171 115 198C157 146.5 167 200 173.5 233C182.5 182 192.5 154 232.5 196C239.5 154 282 154.833 310 161C279.5 131 310.167 96.1667 336.5 91.5C291 87 284 51 300 32C251 52 228 27.5 224.5 2C186.5 36 133.667 23.6667 114.5 4Z" fill="white" stroke="black" stroke-width="4" stroke-linejoin="round"/>
</svg>
