<svg width="338" height="226" viewBox="0 0 338 226" fill="none" xmlns="http://www.w3.org/2000/svg">
<path d="M107 8C101.5 49 49.1667 47.3333 22 39.5C46.5 68 32.5 104.667 2 112C48.5 115.5 57.8333 151.833 40.5 171C76.5 158 107 171 114.5 200C138 157.5 164.5 181.5 164.5 224C176.5 182 192.5 153.5 232.5 200C239.5 158 282 158.833 310 165C279.5 135 309.167 100.167 335.5 95.5C290 91 284 55 300 36C251 56 212.667 23.6667 212.5 2C181.5 41 126.167 27.6667 107 8Z" fill="#E85124" stroke="#E85124" stroke-width="4" stroke-linejoin="round"/>
</svg>
