<svg viewBox="0 0 33 67" fill="none" xmlns="http://www.w3.org/2000/svg">
<g id="Frame 152">
<g id="Union">
<mask id="path-1-outside-1_249_92" maskUnits="userSpaceOnUse" x="0.75" y="0.449219" width="32" height="66" fill="black">
<rect fill="white" x="0.75" y="0.449219" width="32" height="66"/>
<path fill-rule="evenodd" clip-rule="evenodd" d="M16.7405 1.44922C15.126 1.44922 13.7922 2.71943 13.7922 4.3127V6.53536L7.12009 1.90857L7.11758 1.90682C6.18056 1.25431 4.90416 1.31998 4.03192 2.06683L4.0198 2.07743C3.43924 2.58522 3.197 3.29117 3.197 3.91897V16C3.197 17.9177 4.15181 19.7042 5.75686 20.8179L6.91079 21.6178C3.74989 24.279 1.75 28.1966 1.75 32.5549V50.4982C1.75 58.4991 8.48351 64.9992 16.75 64.9992C25.0165 64.9992 31.75 58.4897 31.75 50.4982V32.5549C31.75 28.1973 29.7526 24.2848 26.5979 21.6252L27.7613 20.8188L27.6258 18.934L27.6269 18.9327L27.7626 20.8179C29.3583 19.7136 30.3225 17.9179 30.3225 16V3.89083C30.3225 3.44812 30.198 2.94956 29.892 2.51494C29.852 2.45122 29.807 2.39017 29.7572 2.33239C28.8924 1.32918 27.4336 1.18664 26.401 1.90744L19.6888 6.56204V4.3127C19.6888 2.71943 18.3551 1.44922 16.7405 1.44922ZM26.401 1.90744L26.5274 3.66421L26.5275 3.66412L26.401 1.90744Z"/>
</mask>
<path fill-rule="evenodd" clip-rule="evenodd" d="M16.7405 1.44922C15.126 1.44922 13.7922 2.71943 13.7922 4.3127V6.53536L7.12009 1.90857L7.11758 1.90682C6.18056 1.25431 4.90416 1.31998 4.03192 2.06683L4.0198 2.07743C3.43924 2.58522 3.197 3.29117 3.197 3.91897V16C3.197 17.9177 4.15181 19.7042 5.75686 20.8179L6.91079 21.6178C3.74989 24.279 1.75 28.1966 1.75 32.5549V50.4982C1.75 58.4991 8.48351 64.9992 16.75 64.9992C25.0165 64.9992 31.75 58.4897 31.75 50.4982V32.5549C31.75 28.1973 29.7526 24.2848 26.5979 21.6252L27.7613 20.8188L27.6258 18.934L27.6269 18.9327L27.7626 20.8179C29.3583 19.7136 30.3225 17.9179 30.3225 16V3.89083C30.3225 3.44812 30.198 2.94956 29.892 2.51494C29.852 2.45122 29.807 2.39017 29.7572 2.33239C28.8924 1.32918 27.4336 1.18664 26.401 1.90744L19.6888 6.56204V4.3127C19.6888 2.71943 18.3551 1.44922 16.7405 1.44922ZM26.401 1.90744L26.5274 3.66421L26.5275 3.66412L26.401 1.90744Z" fill="#FCBC12"/>
<path d="M13.7922 6.53536L13.2224 7.35711C13.5282 7.56914 13.9264 7.59387 14.256 7.42131C14.5857 7.24875 14.7922 6.90744 14.7922 6.53536H13.7922ZM7.12009 1.90857L6.54814 2.72887L6.55025 2.73033L7.12009 1.90857ZM7.11758 1.90682L7.68953 1.08653L7.68905 1.0862L7.11758 1.90682ZM4.03192 2.06683L3.38149 1.3072L3.37356 1.31413L4.03192 2.06683ZM4.0198 2.07743L3.36144 1.32473L3.36144 1.32473L4.0198 2.07743ZM5.75686 20.8179L5.18679 21.6395L5.18716 21.6397L5.75686 20.8179ZM6.91079 21.6178L7.55485 22.3827C7.79309 22.1822 7.92428 21.882 7.9097 21.571C7.89512 21.2599 7.73644 20.9733 7.48049 20.7959L6.91079 21.6178ZM26.5979 21.6252L26.0282 20.8034C25.7724 20.9807 25.6137 21.2671 25.599 21.5781C25.5844 21.8891 25.7153 22.1891 25.9534 22.3898L26.5979 21.6252ZM27.7613 20.8188L28.331 21.6406C28.6215 21.4393 28.7841 21.0996 28.7588 20.747L27.7613 20.8188ZM27.6258 18.934L26.8886 18.2582C26.7028 18.461 26.6086 18.7314 26.6283 19.0057L27.6258 18.934ZM27.6269 18.9327L28.6243 18.8609C28.5957 18.4627 28.3328 18.1196 27.9557 17.9883C27.5787 17.857 27.1596 17.9626 26.8898 18.257L27.6269 18.9327ZM27.7626 20.8179L26.7652 20.8897C26.791 21.2478 27.0068 21.5646 27.3306 21.7197C27.6544 21.8748 28.0365 21.8445 28.3317 21.6402L27.7626 20.8179ZM29.892 2.51494L29.045 3.04656C29.0544 3.06151 29.0642 3.07621 29.0743 3.09065L29.892 2.51494ZM29.7572 2.33239L30.5146 1.67948L30.5146 1.67947L29.7572 2.33239ZM19.6888 6.56204H18.6888C18.6888 6.93413 18.8954 7.27544 19.225 7.448C19.5547 7.62056 19.9529 7.59583 20.2586 7.3838L19.6888 6.56204ZM26.5274 3.66421L25.53 3.73595C25.5558 4.0947 25.7723 4.41195 26.0969 4.5668C26.4215 4.72164 26.8043 4.69021 27.0994 4.48449L26.5274 3.66421ZM26.5275 3.66412L27.0995 4.48441C27.3886 4.2828 27.5503 3.94387 27.5249 3.5923L26.5275 3.66412ZM14.7922 4.3127C14.7922 3.30465 15.6447 2.44922 16.7405 2.44922V0.449219C14.6072 0.449219 12.7922 2.13422 12.7922 4.3127H14.7922ZM14.7922 6.53536V4.3127H12.7922V6.53536H14.7922ZM14.3621 5.7136L7.68993 1.08682L6.55025 2.73033L13.2224 7.35711L14.3621 5.7136ZM7.69204 1.08828L7.68953 1.08654L6.54563 2.72711L6.54814 2.72886L7.69204 1.08828ZM7.68905 1.0862C6.37589 0.171749 4.59737 0.266172 3.38152 1.30724L4.68232 2.82642C5.21095 2.37378 5.98524 2.33687 6.54612 2.72745L7.68905 1.0862ZM3.37356 1.31413L3.36144 1.32473L4.67816 2.83014L4.69028 2.81954L3.37356 1.31413ZM3.36144 1.32473C2.53173 2.05045 2.197 3.04825 2.197 3.91897H4.197C4.197 3.53409 4.34676 3.12 4.67816 2.83014L3.36144 1.32473ZM2.197 3.91897V16H4.197V3.91897H2.197ZM2.197 16C2.197 18.2558 3.32109 20.3449 5.18679 21.6395L6.32693 19.9963C4.98253 19.0634 4.197 17.5795 4.197 16H2.197ZM5.18716 21.6397L6.34109 22.4396L7.48049 20.7959L6.32656 19.996L5.18716 21.6397ZM6.26674 20.8528C2.89577 23.6909 0.75 27.8817 0.75 32.5549H2.75C2.75 28.5114 4.60401 24.8671 7.55485 22.3827L6.26674 20.8528ZM0.75 32.5549V50.4982H2.75V32.5549H0.75ZM0.75 50.4982C0.75 59.0834 7.96381 65.9992 16.75 65.9992V63.9992C9.0032 63.9992 2.75 57.9148 2.75 50.4982H0.75ZM16.75 65.9992C25.5366 65.9992 32.75 59.0736 32.75 50.4982H30.75C30.75 57.9058 24.4964 63.9992 16.75 63.9992V65.9992ZM32.75 50.4982V32.5549H30.75V50.4982H32.75ZM32.75 32.5549C32.75 27.8826 30.6068 23.697 27.2425 20.8607L25.9534 22.3898C28.8983 24.8726 30.75 28.5119 30.75 32.5549H32.75ZM27.1676 22.4471L28.331 21.6406L27.1916 19.9969L26.0282 20.8034L27.1676 22.4471ZM28.7588 20.747L28.6232 18.8622L26.6283 19.0057L26.7639 20.8905L28.7588 20.747ZM28.3629 19.6098L28.364 19.6085L26.8898 18.257L26.8886 18.2582L28.3629 19.6098ZM26.6295 19.0045L26.7652 20.8897L28.7601 20.746L28.6243 18.8609L26.6295 19.0045ZM28.3317 21.6402C30.1887 20.355 31.3225 18.2563 31.3225 16H29.3225C29.3225 17.5794 28.5279 19.0721 27.1936 19.9956L28.3317 21.6402ZM31.3225 16V3.89083H29.3225V16H31.3225ZM31.3225 3.89083C31.3225 3.26916 31.149 2.5633 30.7096 1.93923L29.0743 3.09065C29.247 3.33583 29.3225 3.62708 29.3225 3.89083H31.3225ZM30.739 1.98333C30.6722 1.87702 30.5973 1.77542 30.5146 1.67948L28.9997 2.9853C29.0166 3.00493 29.0317 3.02542 29.045 3.04656L30.739 1.98333ZM30.5146 1.67947C29.306 0.277438 27.2705 0.0810101 25.8287 1.08745L26.9734 2.72742C27.5968 2.29227 28.4787 2.38092 28.9997 2.9853L30.5146 1.67947ZM25.8312 1.08569L19.1189 5.74029L20.2586 7.3838L26.9709 2.72919L25.8312 1.08569ZM18.6888 4.3127V6.56204H20.6888V4.3127H18.6888ZM16.7405 2.44922C17.8363 2.44922 18.6888 3.30465 18.6888 4.3127H20.6888C20.6888 2.13422 18.8738 0.449219 16.7405 0.449219V2.44922ZM27.5248 3.59246L27.3985 1.8357L25.4036 1.97918L25.53 3.73595L27.5248 3.59246ZM25.9556 2.84384L25.9554 2.84392L27.0994 4.48449L27.0995 4.48441L25.9556 2.84384ZM25.4036 1.97926L25.5301 3.73594L27.5249 3.5923L27.3985 1.83562L25.4036 1.97926Z" fill="#FCBC12" mask="url(#path-1-outside-1_249_92)"/>
</g>
<path id="Vector" d="M15.6771 31.6609L13.236 36.5736L7.77432 37.3639C6.79488 37.5049 6.40235 38.7034 7.11263 39.3899L11.064 43.2117L10.1295 48.6104C9.96123 49.5863 10.9967 50.3172 11.864 49.8608L16.75 47.3117L21.636 49.8608C22.5033 50.3135 23.5388 49.5863 23.3706 48.6104L22.436 43.2117L26.3874 39.3899C27.0976 38.7034 26.7051 37.5049 25.7257 37.3639L20.264 36.5736L17.8229 31.6609C17.3855 30.7853 16.1182 30.7741 15.6771 31.6609Z" fill="#FFF4D7"/>
</g>
</svg>
