<svg width="28" height="52" viewBox="0 0 28 52" fill="none" xmlns="http://www.w3.org/2000/svg">
    <mask id="path-1-outside-1_336_7424" maskUnits="userSpaceOnUse" x="0.899414" y="0.081543" width="27" height="52" fill="black">
        <rect fill="white" x="0.899414" y="0.081543" width="27" height="52" />
        <path fill-rule="evenodd" clip-rule="evenodd" d="M14.0864 2.08154C12.8815 2.08154 11.8862 3.05931 11.8862 4.28575V5.9965L6.90696 2.43498L6.90509 2.43364C6.20582 1.93135 5.25328 1.9819 4.60236 2.5568L4.59331 2.56497C4.16006 2.95584 3.97928 3.49926 3.97928 3.98251V13.282C3.97928 14.7582 4.69183 16.1334 5.88962 16.9907L6.86769 17.69C4.4413 19.6371 2.89941 22.5435 2.89941 25.7829V38.9038C2.89941 44.7543 7.92442 49.5075 14.0934 49.5075C20.2625 49.5075 25.2875 44.7475 25.2875 38.9038V25.7829C25.2875 22.5441 23.7475 19.6416 21.326 17.6956L22.3109 16.9914L22.2097 15.5407L22.2106 15.5397L22.3119 16.9907C23.5027 16.1406 24.2222 14.7584 24.2222 13.282V3.96085C24.2222 3.62007 24.1293 3.2363 23.9009 2.90174C23.8711 2.85269 23.8375 2.8057 23.8003 2.76122C23.1549 1.98899 22.0663 1.87926 21.2957 2.43411L16.2866 6.01707V4.28575C16.2866 3.05931 15.2912 2.08154 14.0864 2.08154ZM21.2957 2.43411L21.39 3.78654L21.3901 3.78648L21.2957 2.43411Z" />
    </mask>
    <path fill-rule="evenodd" clip-rule="evenodd" d="M14.0864 2.08154C12.8815 2.08154 11.8862 3.05931 11.8862 4.28575V5.9965L6.90696 2.43498L6.90509 2.43364C6.20582 1.93135 5.25328 1.9819 4.60236 2.5568L4.59331 2.56497C4.16006 2.95584 3.97928 3.49926 3.97928 3.98251V13.282C3.97928 14.7582 4.69183 16.1334 5.88962 16.9907L6.86769 17.69C4.4413 19.6371 2.89941 22.5435 2.89941 25.7829V38.9038C2.89941 44.7543 7.92442 49.5075 14.0934 49.5075C20.2625 49.5075 25.2875 44.7475 25.2875 38.9038V25.7829C25.2875 22.5441 23.7475 19.6416 21.326 17.6956L22.3109 16.9914L22.2097 15.5407L22.2106 15.5397L22.3119 16.9907C23.5027 16.1406 24.2222 14.7584 24.2222 13.282V3.96085C24.2222 3.62007 24.1293 3.2363 23.9009 2.90174C23.8711 2.85269 23.8375 2.8057 23.8003 2.76122C23.1549 1.98899 22.0663 1.87926 21.2957 2.43411L16.2866 6.01707V4.28575C16.2866 3.05931 15.2912 2.08154 14.0864 2.08154ZM21.2957 2.43411L21.39 3.78654L21.3901 3.78648L21.2957 2.43411Z" fill="#E85124" />
    <path d="M11.8862 5.9965L10.7226 7.6232C11.3321 8.05919 12.1343 8.11783 12.8007 7.77513C13.4672 7.43243 13.8862 6.74591 13.8862 5.9965H11.8862ZM6.90696 2.43498L5.73922 4.05868L5.74342 4.06169L6.90696 2.43498ZM6.90509 2.43364L8.07283 0.809943L8.07188 0.809259L6.90509 2.43364ZM4.60236 2.5568L3.27839 1.05776C3.27311 1.06243 3.26786 1.06712 3.26262 1.07184L4.60236 2.5568ZM4.59331 2.56497L3.25358 1.08L3.25358 1.08L4.59331 2.56497ZM5.88962 16.9907L4.72561 18.617L4.72636 18.6176L5.88962 16.9907ZM6.86769 17.69L8.11944 19.2499C8.60768 18.8581 8.8843 18.2603 8.86692 17.6345C8.84955 17.0087 8.54018 16.4272 8.03095 16.0631L6.86769 17.69ZM21.326 17.6956L20.1627 16.0687C19.6537 16.4326 19.3444 17.0139 19.3268 17.6394C19.3092 18.2649 19.5854 18.8626 20.0732 19.2546L21.326 17.6956ZM22.3109 16.9914L23.4741 18.6183C24.0394 18.2141 24.3544 17.5455 24.306 16.8522L22.3109 16.9914ZM22.2097 15.5407L20.717 14.2096C20.3582 14.6119 20.177 15.142 20.2145 15.6798L22.2097 15.5407ZM22.2106 15.5397L24.2057 15.4004C24.1497 14.598 23.6184 13.9072 22.8573 13.6471C22.0961 13.387 21.2532 13.6082 20.7179 14.2086L22.2106 15.5397ZM22.3119 16.9907L20.3167 17.1299C20.3671 17.8522 20.804 18.4909 21.4589 18.7997C22.1138 19.1085 22.8845 19.0392 23.4738 18.6185L22.3119 16.9907ZM23.9009 2.90174L22.1923 3.94137C22.2105 3.97117 22.2294 4.0005 22.2491 4.02931L23.9009 2.90174ZM23.8003 2.76122L25.335 1.47871L25.3349 1.47871L23.8003 2.76122ZM16.2866 6.01707H14.2866C14.2866 6.76648 14.7055 7.45301 15.372 7.79571C16.0384 8.13841 16.8406 8.07976 17.4501 7.64377L16.2866 6.01707ZM21.39 3.78654L19.3949 3.92567C19.4453 4.64794 19.882 5.28659 20.5369 5.59544C21.1917 5.90429 21.9623 5.83512 22.5517 5.41458L21.39 3.78654ZM21.3901 3.78648L22.5518 5.41452C23.1181 5.01045 23.4337 4.34117 23.3853 3.6472L21.3901 3.78648ZM13.8862 4.28575C13.8862 4.17187 13.978 4.08154 14.0864 4.08154V0.081543C11.7849 0.081543 9.88616 1.94674 9.88616 4.28575H13.8862ZM13.8862 5.9965V4.28575H9.88616V5.9965H13.8862ZM13.0497 4.36979L8.07051 0.808281L5.74342 4.06169L10.7226 7.6232L13.0497 4.36979ZM8.0747 0.81129L8.07283 0.809943L5.73735 4.05733L5.73922 4.05868L8.0747 0.81129ZM8.07188 0.809259C6.60638 -0.243406 4.62091 -0.127952 3.27839 1.05776L5.92632 4.05585C5.88566 4.09176 5.80526 4.10611 5.7383 4.05802L8.07188 0.809259ZM3.26262 1.07184L3.25358 1.08L5.93304 4.04993L5.94209 4.04177L3.26262 1.07184ZM3.25358 1.08C2.33054 1.91277 1.97928 3.03394 1.97928 3.98251H5.97928C5.97928 3.98558 5.97907 3.98585 5.97924 3.98491C5.97939 3.98417 5.97918 3.98589 5.97736 3.99036C5.97544 3.99511 5.97131 4.00387 5.96357 4.01516C5.95555 4.02684 5.94514 4.03901 5.93304 4.04993L3.25358 1.08ZM1.97928 3.98251V13.282H5.97928V3.98251H1.97928ZM1.97928 13.282C1.97928 15.4079 3.00679 17.3869 4.72561 18.617L7.05363 15.3643C6.37686 14.8799 5.97928 14.1085 5.97928 13.282H1.97928ZM4.72636 18.6176L5.70443 19.3169L8.03095 16.0631L7.05288 15.3638L4.72636 18.6176ZM5.61594 16.1302C2.75677 18.4246 0.899414 21.8872 0.899414 25.7829H4.89941C4.89941 23.1998 6.12583 20.8497 8.11944 19.2499L5.61594 16.1302ZM0.899414 25.7829V38.9038H4.89941V25.7829H0.899414ZM0.899414 38.9038C0.899414 45.9604 6.92418 51.5075 14.0934 51.5075V47.5075C8.92465 47.5075 4.89941 43.5482 4.89941 38.9038H0.899414ZM14.0934 51.5075C21.2636 51.5075 27.2875 45.9528 27.2875 38.9038H23.2875C23.2875 43.5422 19.2614 47.5075 14.0934 47.5075V51.5075ZM27.2875 38.9038V25.7829H23.2875V38.9038H27.2875ZM27.2875 25.7829C27.2875 21.8881 25.4324 18.4298 22.5788 16.1366L20.0732 19.2546C22.0626 20.8533 23.2875 23.2 23.2875 25.7829H27.2875ZM22.4892 19.3225L23.4741 18.6183L21.1476 15.3645L20.1627 16.0687L22.4892 19.3225ZM24.306 16.8522L24.2049 15.4015L20.2145 15.6798L20.3157 17.1305L24.306 16.8522ZM23.7024 16.8718L23.7033 16.8708L20.7179 14.2086L20.717 14.2096L23.7024 16.8718ZM20.2154 15.679L20.3167 17.1299L24.307 16.8514L24.2057 15.4004L20.2154 15.679ZM23.4738 18.6185C25.1871 17.3955 26.2222 15.4087 26.2222 13.282H22.2222C22.2222 14.1081 21.8182 14.8858 21.1499 15.3628L23.4738 18.6185ZM26.2222 13.282V3.96085H22.2222V13.282H26.2222ZM26.2222 3.96085C26.2222 3.27515 26.0383 2.48546 25.5528 1.77418L22.2491 4.02931C22.2334 4.00637 22.2271 3.98864 22.2248 3.98082C22.223 3.97441 22.2222 3.96934 22.2222 3.96085H26.2222ZM25.6095 1.86212C25.5281 1.72833 25.4364 1.60011 25.335 1.47871L22.2656 4.04373C22.2385 4.0113 22.2141 3.97705 22.1923 3.94137L25.6095 1.86212ZM25.3349 1.47871C24.007 -0.110281 21.7359 -0.3473 20.1271 0.811058L22.4644 4.05716C22.4321 4.08038 22.3912 4.08997 22.3536 4.08539C22.3344 4.08306 22.3151 4.07708 22.2975 4.06757C22.2787 4.05746 22.2683 4.04686 22.2656 4.04373L25.3349 1.47871ZM20.1322 0.807408L15.123 4.39037L17.4501 7.64377L22.4593 4.06081L20.1322 0.807408ZM14.2866 4.28575V6.01707H18.2866V4.28575H14.2866ZM14.0864 4.08154C14.1947 4.08154 14.2866 4.17188 14.2866 4.28575H18.2866C18.2866 1.94674 16.3878 0.081543 14.0864 0.081543V4.08154ZM23.3852 3.64741L23.2909 2.29498L19.3006 2.57324L19.3949 3.92567L23.3852 3.64741ZM20.2285 2.15844L20.2284 2.1585L22.5517 5.41458L22.5518 5.41452L20.2285 2.15844ZM19.3006 2.57338L19.395 3.92575L23.3853 3.6472L23.2909 2.29484L19.3006 2.57338Z" fill="white" mask="url(#path-1-outside-1_336_7424)" />
    <path d="M13.2218 24.6275L11.4001 28.2937L7.32423 28.8835C6.59331 28.9887 6.30038 29.8831 6.83044 30.3954L9.77924 33.2475L9.08179 37.2764C8.95625 38.0046 9.72902 38.5501 10.3763 38.2095L14.0225 36.3072L17.6687 38.2095C18.316 38.5473 19.0887 38.0046 18.9632 37.2764L18.2658 33.2475L21.2146 30.3954C21.7446 29.8831 21.4517 28.9887 20.7208 28.8835L16.6449 28.2937L14.8232 24.6275C14.4968 23.974 13.551 23.9657 13.2218 24.6275Z" fill="#FFEAE3" />
</svg>