<svg viewBox="0 0 28 52" fill="none" xmlns="http://www.w3.org/2000/svg">
<mask id="path-1-outside-1_301_3135" maskUnits="userSpaceOnUse" x="0.653015" y="0.081543" width="27" height="52" fill="black">
<rect fill="white" x="0.653015" y="0.081543" width="27" height="52"/>
<path fill-rule="evenodd" clip-rule="evenodd" d="M13.8399 2.08154C12.635 2.08154 11.6397 3.02947 11.6397 4.21847V5.87715L6.66047 2.42435L6.6586 2.42304C5.95933 1.93609 5.00679 1.9851 4.35587 2.54245L4.34682 2.55036C3.91357 2.92931 3.73279 3.45613 3.73279 3.92464V12.9403C3.73279 14.3714 4.44534 15.7047 5.64313 16.5358L6.50427 17.1327C4.14538 19.1187 2.65292 22.0422 2.65292 25.2948V38.6853C2.65292 44.6561 7.67793 49.5069 13.847 49.5069C20.016 49.5069 25.041 44.6491 25.041 38.6853V25.2948C25.041 22.0428 23.5504 19.123 21.1961 17.1383L22.0644 16.5364L21.9632 15.1299L21.9641 15.1289L22.0654 16.5358C23.2562 15.7117 23.9757 14.3716 23.9757 12.9403V3.90364C23.9757 3.57326 23.8828 3.2012 23.6544 2.87686C23.6246 2.82931 23.591 2.78375 23.5538 2.74063C22.9084 1.99196 21.8198 1.88559 21.0492 2.4235L16.0401 5.8971V4.21847C16.0401 3.02947 15.0447 2.08154 13.8399 2.08154ZM21.0492 2.4235L21.1435 3.73451L21.1436 3.73445L21.0492 2.4235Z"/>
</mask>
<path fill-rule="evenodd" clip-rule="evenodd" d="M13.8399 2.08154C12.635 2.08154 11.6397 3.02947 11.6397 4.21847V5.87715L6.66047 2.42435L6.6586 2.42304C5.95933 1.93609 5.00679 1.9851 4.35587 2.54245L4.34682 2.55036C3.91357 2.92931 3.73279 3.45613 3.73279 3.92464V12.9403C3.73279 14.3714 4.44534 15.7047 5.64313 16.5358L6.50427 17.1327C4.14538 19.1187 2.65292 22.0422 2.65292 25.2948V38.6853C2.65292 44.6561 7.67793 49.5069 13.847 49.5069C20.016 49.5069 25.041 44.6491 25.041 38.6853V25.2948C25.041 22.0428 23.5504 19.123 21.1961 17.1383L22.0644 16.5364L21.9632 15.1299L21.9641 15.1289L22.0654 16.5358C23.2562 15.7117 23.9757 14.3716 23.9757 12.9403V3.90364C23.9757 3.57326 23.8828 3.2012 23.6544 2.87686C23.6246 2.82931 23.591 2.78375 23.5538 2.74063C22.9084 1.99196 21.8198 1.88559 21.0492 2.4235L16.0401 5.8971V4.21847C16.0401 3.02947 15.0447 2.08154 13.8399 2.08154ZM21.0492 2.4235L21.1435 3.73451L21.1436 3.73445L21.0492 2.4235Z" fill="#FCBC12"/>
<path d="M11.6397 5.87715L10.5 7.52066C11.1115 7.94472 11.9079 7.99419 12.5672 7.64907C13.2265 7.30395 13.6397 6.62132 13.6397 5.87715H11.6397ZM6.66047 2.42435L5.5166 4.06495L5.52079 4.06785L6.66047 2.42435ZM6.6586 2.42304L7.80246 0.782441L7.80153 0.781787L6.6586 2.42304ZM4.35587 2.54245L3.05507 1.02326C3.04973 1.02783 3.04443 1.03242 3.03914 1.03705L4.35587 2.54245ZM4.34682 2.55036L5.66354 4.05577L5.66354 4.05577L4.34682 2.55036ZM5.64313 16.5358L4.50299 18.1789L4.50373 18.1795L5.64313 16.5358ZM6.50427 17.1327L7.79238 18.6627C8.26885 18.2615 8.53123 17.6613 8.50208 17.0391C8.47293 16.4169 8.15557 15.8438 7.64367 15.489L6.50427 17.1327ZM21.1961 17.1383L20.0568 15.4946C19.545 15.8493 19.2277 16.4221 19.1984 17.044C19.169 17.6659 19.431 18.2661 19.907 18.6674L21.1961 17.1383ZM22.0644 16.5364L23.2038 18.1802C23.7847 17.7775 24.1099 17.098 24.0592 16.393L22.0644 16.5364ZM21.9632 15.1299L20.4912 13.7759C20.118 14.1817 19.9288 14.7235 19.9684 15.2734L21.9632 15.1299ZM21.9641 15.1289L23.9589 14.9853C23.9016 14.1894 23.3767 13.5037 22.6233 13.2407C21.8699 12.9777 21.0323 13.1877 20.4921 13.775L21.9641 15.1289ZM22.0654 16.5358L20.0705 16.6794C20.1221 17.3956 20.5537 18.0292 21.2012 18.3394C21.8488 18.6497 22.613 18.589 23.2035 18.1804L22.0654 16.5358ZM23.6544 2.87686L21.9605 3.94012C21.9792 3.97001 21.9988 3.99941 22.0191 4.02827L23.6544 2.87686ZM23.5538 2.74063L25.0687 1.4348L25.0687 1.4348L23.5538 2.74063ZM16.0401 5.8971H14.0401C14.0401 6.64127 14.4532 7.3239 15.1125 7.66902C15.7718 8.01414 16.5682 7.96467 17.1797 7.54061L16.0401 5.8971ZM21.1435 3.73451L19.1487 3.878C19.2002 4.59409 19.6316 5.22763 20.279 5.53798C20.9264 5.84834 21.6904 5.78789 22.281 5.37959L21.1435 3.73451ZM21.1436 3.73445L22.281 5.37953C22.8632 4.97701 23.1893 4.29676 23.1385 3.59081L21.1436 3.73445ZM13.6397 4.21847C13.6397 4.19878 13.6442 4.17468 13.677 4.14304C13.7125 4.10875 13.7679 4.08154 13.8399 4.08154V0.081543C11.5974 0.081543 9.63967 1.85905 9.63967 4.21847H13.6397ZM13.6397 5.87715V4.21847H9.63967V5.87715H13.6397ZM12.7794 4.23365L7.80016 0.780839L5.52079 4.06785L10.5 7.52066L12.7794 4.23365ZM7.80434 0.783747L7.80246 0.782441L5.51473 4.06364L5.5166 4.06495L7.80434 0.783747ZM7.80153 0.781787C6.34998 -0.229031 4.39321 -0.122515 3.05507 1.02326L5.65666 4.06163C5.63516 4.08005 5.6111 4.08749 5.59244 4.08846C5.57376 4.08943 5.54481 4.08459 5.51567 4.0643L7.80153 0.781787ZM3.03914 1.03705L3.0301 1.04496L5.66354 4.05577L5.67259 4.04785L3.03914 1.03705ZM3.0301 1.04496C2.09853 1.85976 1.73279 2.97029 1.73279 3.92464H5.73279C5.73279 3.9422 5.73029 3.95688 5.72256 3.97536C5.71273 3.99888 5.69309 4.02992 5.66354 4.05577L3.0301 1.04496ZM1.73279 3.92464V12.9403H5.73279V3.92464H1.73279ZM1.73279 12.9403C1.73279 15.0478 2.7839 16.9861 4.50299 18.1789L6.78328 14.8926C6.10677 14.4232 5.73279 13.6951 5.73279 12.9403H1.73279ZM4.50373 18.1795L5.36487 18.7764L7.64367 15.489L6.78253 14.8921L4.50373 18.1795ZM5.21616 15.6027C2.43714 17.9425 0.652924 21.4126 0.652924 25.2948H4.65292C4.65292 22.6719 5.85362 20.2949 7.79238 18.6627L5.21616 15.6027ZM0.652924 25.2948V38.6853H4.65292V25.2948H0.652924ZM0.652924 38.6853C0.652924 45.8247 6.63854 51.5069 13.847 51.5069V47.5069C8.71732 47.5069 4.65292 43.4874 4.65292 38.6853H0.652924ZM13.847 51.5069C21.0562 51.5069 27.041 45.8169 27.041 38.6853H23.041C23.041 43.4813 18.9757 47.5069 13.847 47.5069V51.5069ZM27.041 38.6853V25.2948H23.041V38.6853H27.041ZM27.041 25.2948C27.041 21.4134 25.2589 17.9475 22.4853 15.6092L19.907 18.6674C21.8418 20.2985 23.041 22.6721 23.041 25.2948H27.041ZM22.3355 18.782L23.2038 18.1802L20.925 14.8927L20.0568 15.4946L22.3355 18.782ZM24.0592 16.393L23.958 14.9864L19.9684 15.2734L20.0695 16.6799L24.0592 16.393ZM23.4352 16.4838L23.4361 16.4829L20.4921 13.775L20.4912 13.7759L23.4352 16.4838ZM19.9692 15.2726L20.0705 16.6794L24.0602 16.3921L23.9589 14.9853L19.9692 15.2726ZM23.2035 18.1804C24.917 16.9946 25.9757 15.0485 25.9757 12.9403H21.9757C21.9757 13.6947 21.5954 14.4288 20.9272 14.8912L23.2035 18.1804ZM25.9757 12.9403V3.90364H21.9757V12.9403H25.9757ZM25.9757 3.90364C25.9757 3.21534 25.7849 2.42867 25.2897 1.72545L22.0191 4.02827C21.999 3.99979 21.9884 3.97402 21.983 3.95583C21.9781 3.93924 21.9757 3.92315 21.9757 3.90364H25.9757ZM25.3484 1.8136C25.2651 1.68089 25.1716 1.55424 25.0687 1.4348L22.0389 4.04645C22.0103 4.01326 21.9841 3.97772 21.9605 3.94012L25.3484 1.8136ZM25.0687 1.4348C23.7357 -0.111521 21.4935 -0.325667 19.9045 0.783531L22.194 4.06347C22.1637 4.08463 22.1346 4.08824 22.1144 4.08585C22.1027 4.08447 22.0887 4.08071 22.0736 4.07287C22.0574 4.06439 22.0453 4.05388 22.0389 4.04646L25.0687 1.4348ZM19.9096 0.779993L14.9004 4.25359L17.1797 7.54061L22.1889 4.06701L19.9096 0.779993ZM14.0401 4.21847V5.8971H18.0401V4.21847H14.0401ZM13.8399 4.08154C13.9118 4.08154 13.9672 4.10875 14.0027 4.14304C14.0355 4.17468 14.0401 4.19878 14.0401 4.21847H18.0401C18.0401 1.85904 16.0823 0.081543 13.8399 0.081543V4.08154ZM23.1384 3.59102L23.0441 2.28001L19.0544 2.56699L19.1487 3.878L23.1384 3.59102ZM20.0062 2.08937L20.0061 2.08943L22.281 5.37959L22.281 5.37953L20.0062 2.08937ZM19.0544 2.56714L19.1488 3.87808L23.1385 3.59081L23.0441 2.27986L19.0544 2.56714Z" fill="black" mask="url(#path-1-outside-1_301_3135)"/>
<path d="M13.0464 24.6275L11.2246 28.2937L7.14875 28.8835C6.41783 28.9887 6.1249 29.8831 6.65496 30.3954L9.60376 33.2475L8.90632 37.2764C8.78078 38.0046 9.55355 38.5501 10.2008 38.2095L13.847 36.3072L17.4933 38.2095C18.1405 38.5473 18.9133 38.0046 18.7877 37.2764L18.0903 33.2475L21.0391 30.3954C21.5691 29.8831 21.2762 28.9887 20.5453 28.8835L16.4694 28.2937L14.6477 24.6275C14.3213 23.974 13.3756 23.9657 13.0464 24.6275Z" fill="#FFF4D7"/>
</svg>
