<svg width="245" height="100" viewBox="0 0 245 100" fill="none" xmlns="http://www.w3.org/2000/svg">
<g filter="url(#filter0_d_361_917)">
<path fill-rule="evenodd" clip-rule="evenodd" d="M73.6367 12.7226C71.5377 14.4717 71.2395 17.4231 72.747 19.5094L72.7517 19.5159L90.1777 43.8095L72.7488 68.107L72.7458 68.1112C71.3841 70.0007 71.5187 72.5852 73.0828 74.3511L73.1018 74.3723C74.1468 75.5273 75.6124 76.0206 76.9326 76.0206L107.619 76.0206C112.111 76.0206 116.308 73.8597 118.932 70.2037L121.147 67.115C127.908 75.3832 138.187 80.6667 149.669 80.6667L195.246 80.6667C215.569 80.6667 232.08 64.1323 232.08 43.8336C232.08 23.5348 215.545 7.0004 195.246 7.0004L149.669 7.0004C138.188 7.0004 127.923 12.2778 121.165 20.5299L118.933 17.4163C116.333 13.7829 112.112 11.5983 107.619 11.5983L76.8612 11.5983C75.9283 11.5983 74.8858 11.8554 73.9888 12.4741C73.8656 12.547 73.7478 12.63 73.6367 12.7226Z" fill="black"/>
</g>
<g filter="url(#filter1_d_361_917)">
<path d="M56.6574 43.9287L14.5352 43.9287" stroke="black" stroke-width="4.16934" stroke-linecap="round" stroke-linejoin="round"/>
</g>
<g filter="url(#filter2_d_361_917)">
<path d="M61.8749 59.7961L28.3772 59.7961" stroke="black" stroke-width="4.16934" stroke-linecap="round" stroke-linejoin="round"/>
</g>
<g filter="url(#filter3_d_361_917)">
<path d="M61.8749 28.3716L28.3772 28.3716" stroke="black" stroke-width="4.16934" stroke-linecap="round" stroke-linejoin="round"/>
</g>
<path d="M75.9213 14.8145C74.9207 15.6483 74.8016 17.0063 75.4925 17.9593L94.052 43.8331L75.4925 69.7069C74.8731 70.5645 74.9207 71.7558 75.6593 72.5897C76.1119 73.09 76.8029 73.3521 77.4938 73.3521L108.18 73.352C111.802 73.352 115.185 71.6128 117.305 68.6586L134.149 45.1673C134.435 44.7623 134.578 44.2858 134.578 43.8331C134.578 43.3804 134.435 42.8801 134.149 42.4989L117.305 19.0076C115.208 16.0772 111.802 14.3141 108.18 14.3141L77.4223 14.3141C76.8982 14.3141 76.3502 14.4809 75.9452 14.8145L75.9213 14.8145Z" fill="black" stroke="black" stroke-width="5.38441" stroke-linecap="round" stroke-linejoin="round"/>
<path d="M113.398 43.857C113.398 64.1796 129.932 80.6902 150.231 80.6902L195.808 80.6902C216.131 80.6902 232.641 64.1558 232.641 43.857C232.641 23.5583 216.107 7.02384 195.808 7.02384L150.231 7.02384C129.909 7.02384 113.398 23.5583 113.398 43.857Z" fill="black"/>
<path d="M79.5908 68.3728L112.135 69.9214L79.5908 71.47C78.7331 71.5177 78.0183 70.8506 77.9707 70.0167C77.923 69.1828 78.5901 68.4443 79.424 68.3966C79.4716 68.3966 79.5193 68.3966 79.5669 68.3966L79.5908 68.3728Z" fill="#FCBC12"/>
<path d="M78.4944 40.4265C76.5884 40.4265 75.0398 41.9751 75.0398 43.8811C75.0398 45.7871 76.5884 47.3357 78.4944 47.3357L114.136 47.3357L114.136 40.4265L78.4944 40.4265Z" fill="black" stroke="black" stroke-width="5.38441" stroke-linecap="round" stroke-linejoin="round"/>
<path d="M79.5905 42.356L122.761 43.9046L79.5905 45.4532C78.7328 45.4771 78.0181 44.81 77.9943 43.9761C77.9704 43.1422 78.6375 42.4037 79.4714 42.3798C79.4952 42.3798 79.5429 42.3798 79.5905 42.3798L79.5905 42.356Z" fill="#FCBC12"/>
<path d="M162.701 61.1785L162.701 57.1889L170.88 57.1889C175.01 57.1889 177.366 58.643 177.366 61.4395C177.366 64.236 175.01 65.6902 170.88 65.6902L157.486 65.6902C153.356 65.6902 151 64.236 151 61.4395C151 58.643 153.356 57.1889 157.486 57.1889L160 57.1889L160 59.8921L157.247 59.8921C155.394 59.8921 154.706 60.4701 154.706 61.3649C154.706 62.2598 155.394 62.8378 157.247 62.8378L171.172 62.8378C173.025 62.8378 173.686 62.2598 173.686 61.3649C173.686 60.4701 173.025 59.8921 171.172 59.8921L166.433 59.8921L166.433 61.1972L162.753 61.1972L162.701 61.1785Z" fill="black" stroke="black" stroke-width="9.9826" stroke-linecap="round" stroke-linejoin="round"/>
<path d="M186.287 55.5671L187.346 55.5671C190.364 55.5671 192.323 56.2196 193.276 57.6738C194.255 55.9213 196.479 55.2502 199.603 55.2502L202.011 55.2502C206.565 55.2502 209 56.9467 209 60.2093L209 65.3362L179.537 65.3362L179.537 60.4144C179.537 57.0399 181.761 55.5858 186.314 55.5858L186.287 55.5671ZM183.719 62.055L191.502 62.055L191.502 60.7872C191.502 59.5754 190.734 58.8297 188.378 58.8297L186.737 58.8297C184.619 58.8297 183.719 59.333 183.719 60.4889L183.719 62.055ZM195.711 62.055L204.765 62.055L204.765 60.1906C204.765 59.0907 204.05 58.4941 201.853 58.4941L199.285 58.4941C196.558 58.4941 195.711 59.1093 195.711 60.6008L195.711 62.055Z" fill="black" stroke="black" stroke-width="9.9826" stroke-linecap="round" stroke-linejoin="round"/>
<path d="M183.72 22.2512L191.503 22.2512L191.503 20.9835C191.503 19.7717 190.735 19.0259 188.379 19.0259L186.738 19.0259C184.62 19.0259 183.72 19.5293 183.72 20.6852L183.72 22.2512ZM195.712 22.2512L204.765 22.2512L204.765 20.3869C204.765 19.2869 204.05 18.6904 201.853 18.6904L199.285 18.6904C196.559 18.6904 195.712 19.3056 195.712 20.797L195.712 22.2512Z" fill="black" stroke="black" stroke-width="9.9826" stroke-linecap="round" stroke-linejoin="round"/>
<path d="M155.206 29.4475H159.81V36.0369C159.81 39.3636 158.132 41.2615 154.905 41.2615C151.678 41.2615 150 39.3636 150 36.0369V25.2465C150 21.9199 151.678 20.022 154.905 20.022C158.132 20.022 159.81 21.9199 159.81 25.2465V27.2511H156.691V25.0333C156.691 23.5619 156.024 22.9861 154.991 22.9861C153.958 22.9861 153.292 23.5406 153.292 25.0333V36.2288C153.292 37.7002 153.958 38.2333 154.991 38.2333C156.024 38.2333 156.691 37.7002 156.691 36.2288V32.4117H155.185V29.4475H155.206Z" fill="white"/>
<path d="M168.824 41.0052C168.652 40.4721 168.523 40.1522 168.523 38.4462V35.1835C168.523 33.2643 167.856 32.5393 166.372 32.5393H165.231V40.9839H161.94V20.2349H166.91C170.309 20.2349 171.793 21.8129 171.793 25.0116V26.6323C171.793 28.7648 171.105 30.1509 169.642 30.8333C171.277 31.5157 171.815 33.0937 171.815 35.2475V38.4462C171.815 39.4485 171.836 40.1949 172.18 40.9625H168.824V41.0052ZM165.231 23.2203V29.5964H166.522C167.749 29.5964 168.501 29.0633 168.501 27.4V25.3528C168.501 23.8814 167.985 23.2203 166.823 23.2203H165.231Z" fill="white"/>
<path d="M184.702 41.0056H181.389L180.829 37.2311H176.785L176.225 41.0056H173.214L176.57 20.2566H181.389L184.745 41.0056H184.702ZM177.194 34.4162H180.356L178.764 23.9245L177.172 34.4162H177.194Z" fill="white"/>
<path d="M195.695 33.264V36.0149C195.695 39.3416 194.017 41.2395 190.79 41.2395C187.563 41.2395 185.885 39.3416 185.885 36.0149V25.2246C185.885 21.8979 187.563 20 190.79 20C194.017 20 195.695 21.8979 195.695 25.2246V27.2291H192.575V25.0113C192.575 23.5399 191.908 22.9641 190.876 22.9641C189.843 22.9641 189.176 23.5186 189.176 25.0113V36.2068C189.176 37.6783 189.843 38.2114 190.876 38.2114C191.908 38.2114 192.575 37.6783 192.575 36.2068V33.2427H195.695V33.264Z" fill="white"/>
<path d="M200.986 28.9997H205.504V31.9639H200.986V38.0415H206.666V41.0056H197.695V20.2566H206.666V23.2207H200.986V28.9997Z" fill="white"/>
<path d="M161.703 48.4478V49.3008C161.703 51.7319 160.95 53.3099 159.272 54.0776C161.295 54.8666 162.069 56.6579 162.069 59.1742V61.1148C162.069 64.7826 160.111 66.7445 156.347 66.7445H150.43V43.01H156.11C160.004 43.01 161.682 44.8013 161.682 48.4692L161.703 48.4478ZM154.217 46.3793V52.6488H155.68C157.078 52.6488 157.939 52.0304 157.939 50.1325V48.8104C157.939 47.1257 157.358 46.3793 156.024 46.3793H154.217ZM154.217 56.0395V63.3325H156.368C157.637 63.3325 158.326 62.7568 158.326 60.9868V58.9183C158.326 56.7218 157.616 56.0395 155.895 56.0395H154.217Z" fill="white"/>
<path d="M164.027 48.6819C164.027 44.8861 166.049 42.7109 169.75 42.7109C173.45 42.7109 175.472 44.8861 175.472 48.6819V61.0289C175.472 64.8247 173.45 66.9999 169.75 66.9999C166.049 66.9999 164.027 64.8247 164.027 61.0289V48.6819ZM167.792 61.2635C167.792 62.9695 168.545 63.6092 169.75 63.6092C170.954 63.6092 171.707 62.9695 171.707 61.2635V48.4473C171.707 46.7627 170.954 46.1016 169.75 46.1016C168.545 46.1016 167.792 46.7413 167.792 48.4473V61.2635Z" fill="white"/>
<path d="M185.992 59.8778L188.553 43.0312H193.78V66.7657H190.231V49.7486L187.627 66.7657H184.078L181.281 49.9831V66.7657H177.99V43.0312H183.217L185.992 59.8778Z" fill="white"/>
<path d="M207.634 48.4478V49.3008C207.634 51.7319 206.881 53.3099 205.203 54.0776C207.226 54.8666 208 56.6579 208 59.1742V61.1148C208 64.7826 206.042 66.7445 202.277 66.7445H196.361V43.01H202.041C205.935 43.01 207.613 44.8013 207.613 48.4692L207.634 48.4478ZM200.148 46.3793V52.6488H201.611C203.009 52.6488 203.869 52.0304 203.869 50.1325V48.8104C203.869 47.1257 203.289 46.3793 201.955 46.3793H200.148ZM200.148 56.0395V63.3325H202.299C203.568 63.3325 204.257 62.7568 204.257 60.9868V58.9183C204.257 56.7218 203.547 56.0395 201.826 56.0395H200.148Z" fill="white"/>
<path d="M57.219 43.9524L15.0967 43.9524" stroke="black" stroke-width="4.16934" stroke-linecap="round" stroke-linejoin="round"/>
<path d="M62.4364 59.8198L28.9387 59.8198" stroke="black" stroke-width="4.16934" stroke-linecap="round" stroke-linejoin="round"/>
<path d="M62.4364 28.3953L28.9387 28.3953" stroke="black" stroke-width="4.16934" stroke-linecap="round" stroke-linejoin="round"/>
<path d="M136.676 37.1692V51.1692M129.676 44.1692H143.676" stroke="white" stroke-width="3.07042" stroke-linecap="square" stroke-linejoin="round"/>
<path d="M127.239 64.1322C130.813 67.6344 135.054 70.3504 139.7 71.8514C142.011 72.6138 144.393 73.1379 146.8 73.3285C147.395 73.3762 148.015 73.3762 148.61 73.4238L150.421 73.4238L154.161 73.3285C159.165 73.1856 164.144 73.1618 169.147 73.0665L184.133 72.9712L191.614 72.9712L195.355 73.0188C196.593 73.0188 197.737 72.9235 198.928 72.8759C203.669 72.4232 208.268 70.7793 212.342 68.23C214.319 66.872 216.249 65.3949 217.869 63.608C218.751 62.7741 219.465 61.7973 220.228 60.8682C220.633 60.4155 220.919 59.8675 221.276 59.3672C221.61 58.843 221.967 58.3666 222.253 57.8186C224.707 53.6016 226.136 48.789 226.517 43.7858C226.827 48.789 225.779 53.9113 223.587 58.5333C221.324 63.1315 217.893 67.1579 213.676 70.2075C209.435 73.2094 204.408 75.0916 199.238 75.7587C197.951 75.8778 196.617 75.9493 195.355 75.9731L191.614 75.9731L184.133 76.0207L169.147 75.9255C164.144 75.854 159.165 75.8063 154.161 75.6634L150.421 75.5681L148.491 75.4728C147.848 75.4013 147.205 75.3298 146.561 75.2584C144.012 74.8772 141.51 74.1862 139.152 73.1856C134.435 71.2081 130.289 68.0156 127.216 64.0607L127.239 64.1322Z" fill="#FCBC12"/>
<defs>
<filter id="filter0_d_361_917" x="59.4573" y="0.795878" width="184.968" height="98.3572" filterUnits="userSpaceOnUse" color-interpolation-filters="sRGB">
<feFlood flood-opacity="0" result="BackgroundImageFix"/>
<feColorMatrix in="SourceAlpha" type="matrix" values="0 0 0 0 0 0 0 0 0 0 0 0 0 0 0 0 0 0 127 0" result="hardAlpha"/>
<feOffset dy="6.14085"/>
<feGaussianBlur stdDeviation="6.17273"/>
<feComposite in2="hardAlpha" operator="out"/>
<feColorMatrix type="matrix" values="0 0 0 0 0 0 0 0 0 0 0 0 0 0 0 0 0 0 0.25 0"/>
<feBlend mode="normal" in2="BackgroundImageFix" result="effect1_dropShadow_361_917"/>
<feBlend mode="normal" in="SourceGraphic" in2="effect1_dropShadow_361_917" result="shape"/>
</filter>
<filter id="filter1_d_361_917" x="0.104983" y="35.6394" width="70.9827" height="28.8603" filterUnits="userSpaceOnUse" color-interpolation-filters="sRGB">
<feFlood flood-opacity="0" result="BackgroundImageFix"/>
<feColorMatrix in="SourceAlpha" type="matrix" values="0 0 0 0 0 0 0 0 0 0 0 0 0 0 0 0 0 0 127 0" result="hardAlpha"/>
<feOffset dy="6.14085"/>
<feGaussianBlur stdDeviation="6.17273"/>
<feComposite in2="hardAlpha" operator="out"/>
<feColorMatrix type="matrix" values="0 0 0 0 0 0 0 0 0 0 0 0 0 0 0 0 0 0 0.25 0"/>
<feBlend mode="normal" in2="BackgroundImageFix" result="effect1_dropShadow_361_917"/>
<feBlend mode="normal" in="SourceGraphic" in2="effect1_dropShadow_361_917" result="shape"/>
</filter>
<filter id="filter2_d_361_917" x="13.947" y="51.5068" width="62.3579" height="28.8603" filterUnits="userSpaceOnUse" color-interpolation-filters="sRGB">
<feFlood flood-opacity="0" result="BackgroundImageFix"/>
<feColorMatrix in="SourceAlpha" type="matrix" values="0 0 0 0 0 0 0 0 0 0 0 0 0 0 0 0 0 0 127 0" result="hardAlpha"/>
<feOffset dy="6.14085"/>
<feGaussianBlur stdDeviation="6.17273"/>
<feComposite in2="hardAlpha" operator="out"/>
<feColorMatrix type="matrix" values="0 0 0 0 0 0 0 0 0 0 0 0 0 0 0 0 0 0 0.25 0"/>
<feBlend mode="normal" in2="BackgroundImageFix" result="effect1_dropShadow_361_917"/>
<feBlend mode="normal" in="SourceGraphic" in2="effect1_dropShadow_361_917" result="shape"/>
</filter>
<filter id="filter3_d_361_917" x="13.947" y="20.0823" width="62.3579" height="28.8603" filterUnits="userSpaceOnUse" color-interpolation-filters="sRGB">
<feFlood flood-opacity="0" result="BackgroundImageFix"/>
<feColorMatrix in="SourceAlpha" type="matrix" values="0 0 0 0 0 0 0 0 0 0 0 0 0 0 0 0 0 0 127 0" result="hardAlpha"/>
<feOffset dy="6.14085"/>
<feGaussianBlur stdDeviation="6.17273"/>
<feComposite in2="hardAlpha" operator="out"/>
<feColorMatrix type="matrix" values="0 0 0 0 0 0 0 0 0 0 0 0 0 0 0 0 0 0 0.25 0"/>
<feBlend mode="normal" in2="BackgroundImageFix" result="effect1_dropShadow_361_917"/>
<feBlend mode="normal" in="SourceGraphic" in2="effect1_dropShadow_361_917" result="shape"/>
</filter>
</defs>
</svg>
