<svg width="50" height="25" viewBox="0 0 50 25" fill="none" xmlns="http://www.w3.org/2000/svg">
<mask id="path-1-outside-1_527_262" maskUnits="userSpaceOnUse" x="0.0815419" y="-0.0312521" width="50" height="25" fill="black">
<rect fill="white" x="0.0815419" y="-0.0312521" width="50" height="25"/>
<path fill-rule="evenodd" clip-rule="evenodd" d="M1.08154 12.7259C1.08154 13.9368 2.02948 14.9371 3.2185 14.9371L4.87703 14.9371L1.42418 19.9412L1.42287 19.943C0.935916 20.6458 0.984923 21.6031 1.54228 22.2573L1.5502 22.2664C1.92915 22.7018 2.45598 22.8835 2.92449 22.8835L11.9403 22.8835C13.3714 22.8835 14.7046 22.1674 15.5358 20.9636L16.1328 20.098C18.1188 22.4688 21.0424 23.9687 24.295 23.9687L37.6857 23.9687C43.6566 23.9687 48.5075 18.9186 48.5075 12.7187C48.5075 6.51888 43.6496 1.46875 37.6857 1.46875L24.295 1.46875C21.043 1.46875 18.1231 2.96687 16.1384 5.33292L15.5364 4.46024L14.13 4.56191L14.1291 4.56104L15.5358 4.45925C14.7117 3.26247 13.3716 2.53935 11.9403 2.53935L2.90349 2.53935C2.57311 2.53935 2.20105 2.63274 1.8767 2.86225C1.82914 2.89225 1.78359 2.92601 1.74046 2.96336C0.991789 3.61195 0.885414 4.706 1.42333 5.48045L4.89698 10.5147L3.2185 10.5147C2.02948 10.5147 1.08154 11.515 1.08154 12.7259ZM1.42333 5.48045L2.73452 5.38567L2.73446 5.38558L1.42333 5.48045Z"/>
</mask>
<path fill-rule="evenodd" clip-rule="evenodd" d="M1.08154 12.7259C1.08154 13.9368 2.02948 14.9371 3.2185 14.9371L4.87703 14.9371L1.42418 19.9412L1.42287 19.943C0.935916 20.6458 0.984923 21.6031 1.54228 22.2573L1.5502 22.2664C1.92915 22.7018 2.45598 22.8835 2.92449 22.8835L11.9403 22.8835C13.3714 22.8835 14.7046 22.1674 15.5358 20.9636L16.1328 20.098C18.1188 22.4688 21.0424 23.9687 24.295 23.9687L37.6857 23.9687C43.6566 23.9687 48.5075 18.9186 48.5075 12.7187C48.5075 6.51888 43.6496 1.46875 37.6857 1.46875L24.295 1.46875C21.043 1.46875 18.1231 2.96687 16.1384 5.33292L15.5364 4.46024L14.13 4.56191L14.1291 4.56104L15.5358 4.45925C14.7117 3.26247 13.3716 2.53935 11.9403 2.53935L2.90349 2.53935C2.57311 2.53935 2.20105 2.63274 1.8767 2.86225C1.82914 2.89225 1.78359 2.92601 1.74046 2.96336C0.991789 3.61195 0.885414 4.706 1.42333 5.48045L4.89698 10.5147L3.2185 10.5147C2.02948 10.5147 1.08154 11.515 1.08154 12.7259ZM1.42333 5.48045L2.73452 5.38567L2.73446 5.38558L1.42333 5.48045Z" fill="#ECF0FF"/>
<path d="M4.87703 14.9371L5.49127 15.3609C5.64879 15.1326 5.66671 14.8358 5.53779 14.5902C5.40887 14.3446 5.15439 14.1908 4.87703 14.1908L4.87703 14.9371ZM1.42418 19.9412L2.03731 20.3666L2.03842 20.365L1.42418 19.9412ZM1.42287 19.943L0.809751 19.5176L0.809474 19.518L1.42287 19.943ZM1.54228 22.2573L0.974202 22.7413L0.979358 22.7472L1.54228 22.2573ZM1.5502 22.2664L2.11312 21.7765L2.11312 21.7765L1.5502 22.2664ZM15.5358 20.9636L16.1499 21.3876L16.1501 21.3873L15.5358 20.9636ZM16.1328 20.098L16.7048 19.6188C16.5552 19.4402 16.3307 19.3417 16.0979 19.3526C15.8651 19.3635 15.6508 19.4825 15.5185 19.6743L16.1328 20.098ZM24.295 23.9687L24.295 24.715L24.295 23.9687ZM37.6857 23.9687L37.6857 23.2225L37.6857 23.9687ZM37.6857 1.46875L37.6857 0.722479L37.6857 1.46875ZM24.295 1.46875L24.295 2.21502L24.295 1.46875ZM16.1384 5.33292L15.5241 5.75664C15.6563 5.9484 15.8706 6.06739 16.1032 6.07836C16.3359 6.08932 16.5604 5.991 16.7101 5.81253L16.1384 5.33292ZM15.5364 4.46024L16.1508 4.03652C16.0006 3.81881 15.7464 3.69684 15.4826 3.71591L15.5364 4.46024ZM14.13 4.56191L13.6239 5.11031C13.7754 5.25018 13.9781 5.3211 14.1838 5.30623L14.13 4.56191ZM14.1291 4.56104L14.0752 3.81672C13.7785 3.83819 13.5229 4.03381 13.4247 4.3146C13.3264 4.59538 13.4043 4.90769 13.6229 5.10944L14.1291 4.56104ZM15.5358 4.45925L15.5896 5.20357C15.8565 5.18426 16.0926 5.02354 16.2085 4.78234C16.3243 4.54115 16.3022 4.25639 16.1504 4.036L15.5358 4.45925ZM1.8767 2.86225L2.27485 3.49343C2.28601 3.48639 2.29699 3.47906 2.30776 3.47143L1.8767 2.86225ZM1.74046 2.96336L1.25183 2.39931L1.25182 2.39932L1.74046 2.96336ZM4.89698 10.5147L4.89698 11.2609C5.17434 11.2609 5.42882 11.1071 5.55774 10.8615C5.68665 10.616 5.66873 10.3191 5.51121 10.0908L4.89698 10.5147ZM2.73452 5.38567L2.78833 6.13C3.05559 6.11068 3.29197 5.94955 3.40766 5.70786C3.52334 5.46616 3.50057 5.18099 3.34798 4.96072L2.73452 5.38567ZM2.73446 5.38558L3.34792 4.96063C3.19761 4.74365 2.94387 4.62221 2.6806 4.64126L2.73446 5.38558ZM3.2185 14.1908C2.46963 14.1908 1.82781 13.5532 1.82781 12.7259L0.335274 12.7259C0.335274 14.3204 1.58932 15.6833 3.2185 15.6833L3.2185 14.1908ZM4.87703 14.1908L3.2185 14.1908L3.2185 15.6833L4.87703 15.6833L4.87703 14.1908ZM4.26279 14.5132L0.809943 19.5173L2.03842 20.365L5.49127 15.3609L4.26279 14.5132ZM0.811056 19.5157L0.809751 19.5176L2.036 20.3685L2.0373 20.3666L0.811056 19.5157ZM0.809474 19.518C0.128596 20.5006 0.198643 21.831 0.974233 22.7413L2.11033 21.7733C1.7712 21.3753 1.74324 20.791 2.03628 20.3681L0.809474 19.518ZM0.979358 22.7472L0.987271 22.7563L2.11312 21.7765L2.10521 21.7674L0.979358 22.7472ZM0.987269 22.7563C1.52847 23.3782 2.27344 23.6298 2.92449 23.6298L2.92449 22.1372C2.63852 22.1372 2.32983 22.0255 2.11312 21.7765L0.987269 22.7563ZM2.92449 23.6298L11.9403 23.6298L11.9403 22.1372L2.92449 22.1372L2.92449 23.6298ZM11.9403 23.6298C13.6254 23.6298 15.1845 22.7859 16.1499 21.3876L14.9216 20.5396C14.2248 21.5489 13.1174 22.1372 11.9403 22.1372L11.9403 23.6298ZM16.1501 21.3873L16.7471 20.5218L15.5185 19.6743L14.9215 20.5399L16.1501 21.3873ZM15.5607 20.5773C17.6782 23.105 20.8061 24.715 24.295 24.715L24.295 23.2225C21.2788 23.2225 18.5594 21.8326 16.7048 19.6188L15.5607 20.5773ZM24.295 24.715L37.6857 24.715L37.6857 23.2225L24.295 23.2225L24.295 24.715ZM37.6857 24.715C44.0961 24.715 49.2538 19.3029 49.2538 12.7187L47.7612 12.7187C47.7612 18.5343 43.2171 23.2225 37.6857 23.2225L37.6857 24.715ZM49.2538 12.7187C49.2538 6.13429 44.0888 0.722479 37.6857 0.722479L37.6857 2.21502C43.2104 2.21502 47.7612 6.90347 47.7612 12.7187L49.2538 12.7187ZM37.6857 0.722479L24.295 0.72248L24.295 2.21502L37.6857 2.21502L37.6857 0.722479ZM24.295 0.72248C20.8067 0.72248 17.6828 2.33058 15.5666 4.85331L16.7101 5.81253C18.5635 3.60317 21.2792 2.21502 24.295 2.21502L24.295 0.72248ZM16.7527 4.9092L16.1508 4.03652L14.9221 4.88396L15.5241 5.75664L16.7527 4.9092ZM15.4826 3.71591L14.0762 3.81758L14.1838 5.30623L15.5903 5.20456L15.4826 3.71591ZM14.6361 4.0135L14.6352 4.01264L13.6229 5.10944L13.6239 5.11031L14.6361 4.0135ZM14.1829 5.30536L15.5896 5.20357L15.4819 3.71493L14.0752 3.81672L14.1829 5.30536ZM16.1504 4.036C15.192 2.64423 13.6258 1.79308 11.9403 1.79308L11.9403 3.28562C13.1174 3.28562 14.2313 3.88071 14.9211 4.88249L16.1504 4.036ZM11.9403 1.79308L2.90349 1.79309L2.90349 3.28562L11.9403 3.28562L11.9403 1.79308ZM2.90349 1.79309C2.43876 1.79309 1.91147 1.92344 1.44564 2.25307L2.30776 3.47143C2.49062 3.34204 2.70746 3.28562 2.90349 3.28562L2.90349 1.79309ZM1.47855 2.23107C1.39919 2.28112 1.32339 2.33732 1.25183 2.39931L2.2291 3.52742C2.24379 3.51469 2.2591 3.50337 2.27485 3.49343L1.47855 2.23107ZM1.25182 2.39932C0.206688 3.30473 0.0611999 4.82753 0.810409 5.90618L2.03626 5.05473C1.70963 4.58448 1.77689 3.91917 2.2291 3.52741L1.25182 2.39932ZM0.809095 5.90428L4.28274 10.9385L5.51121 10.0908L2.03757 5.05663L0.809095 5.90428ZM3.2185 11.2609L4.89698 11.2609L4.89698 9.76841L3.2185 9.76841L3.2185 11.2609ZM1.82781 12.7259C1.82781 11.8985 2.46963 11.2609 3.2185 11.2609L3.2185 9.76841C1.58932 9.76841 0.335274 11.1314 0.335274 12.7259L1.82781 12.7259ZM2.68072 4.64134L1.36953 4.73613L1.47714 6.22478L2.78833 6.13L2.68072 4.64134ZM2.121 5.81053L2.12106 5.81062L3.34798 4.96072L3.34792 4.96063L2.121 5.81053ZM1.47719 6.22478L2.78832 6.1299L2.6806 4.64126L1.36947 4.73613L1.47719 6.22478Z" fill="#ECF0FF" mask="url(#path-1-outside-1_527_262)"/>
<path d="M30.662 5.49324L28.8403 9.15941L24.7644 9.74921C24.0335 9.85443 23.7406 10.7488 24.2706 11.2611L27.2194 14.1132L26.522 18.1421C26.3964 18.8703 27.1692 19.4158 27.8164 19.0752L31.4627 17.1729L35.1089 19.0752C35.7562 19.4131 36.5289 18.8703 36.4034 18.1421L35.7059 14.1132L38.6548 11.2611C39.1848 10.7488 38.8919 9.85443 38.161 9.74921L34.0851 9.15941L32.2634 5.49324C31.937 4.83975 30.9912 4.83144 30.662 5.49324Z" fill="#E85124"/>
</svg>